<?xml version="1.0" encoding="UTF-8"?>
<svg width="64" height="64" viewBox="0 0 64 64" xmlns="http://www.w3.org/2000/svg" role="img" aria-label="WhatsApp">
  <defs>
    <linearGradient id="bg" x1="0" y1="0" x2="1" y2="1">
      <stop offset="0%" stop-color="#25D366"/>
      <stop offset="100%" stop-color="#1EBEA5"/>
    </linearGradient>
  </defs>
  <g fill="none" fill-rule="evenodd">
    <circle cx="32" cy="32" r="30" fill="url(#bg)"/>
    <path d="M21.5 45.5l1.9-6.7a14.5 14.5 0 1 1 6.6 3.3l-6.7 3.4z" fill="#FFFFFF" opacity="0.22"/>
    <path d="M32 18c-7.7 0-14 6.2-14 14 0 2.5.7 4.9 2 7l-1.9 6.7 6.7-3.4c2 .9 4.2 1.4 6.4 1.4 7.7 0 14-6.3 14-14.1C45.2 24.2 39.8 18 32 18zm-7.6 6.7c.3-.7 1.1-1.2 1.9-1.2h1.4c.5 0 1 .3 1.3.7l1.5 2.5c.3.4.2 1-.2 1.3l-1.2 1c-.3.2-.4.6-.2.9 1.1 2 2.8 3.6 4.9 4.7.3.2.7.1.9-.2l1-1.2c.3-.4.9-.5 1.3-.2l2.5 1.5c.4.3.7.8.7 1.3v1.4c0 .8-.5 1.5-1.2 1.9-.6.3-1.3.5-2 .5-.3 0-.7 0-1-.1-2.3-.5-4.4-1.5-6.4-2.8a19.2 19.2 0 0 1-5.6-5.6 18.8 18.8 0 0 1-2.8-6.4c-.1-.3-.1-.7-.1-1 .1-.7.3-1.4.6-2z" fill="#FFFFFF"/>
  </g>
</svg>
